<?xml version="1.0" encoding="UTF-8"?><svg width="13.4937mm" height="17.4625mm" viewBox="0 0 51 66" xmlns="http://www.w3.org/2000/svg" xmlns:xlink="http://www.w3.org/1999/xlink"><g fill="none" stroke="black" stroke-width="1" fill-rule="evenodd" stroke-linecap="square" stroke-linejoin="bevel"><g clip-path="none" fill="none" opacity="1" stroke="none" stroke-opacity="0" transform="matrix(1,0,0,1,0,0)"><path d="M0,0 L51,0 L51,49 L0,49 L0,0 z" fill-rule="evenodd" vector-effect="none"/></g><defs><clipPath id="clip3"><path d="M-2,-2 L49,-2 L49,47 L-2,47 L-2,-2 z"/></clipPath></defs><g clip-path="url(#clip3)" fill="#ffffff" fill-opacity="1" opacity="1" stroke="none" stroke-opacity="0" transform="matrix(1,0,0,1,2,2)"><path d="M0,0 L47,0 L47,45 L0,45 L0,0 z" fill-rule="evenodd" vector-effect="none"/></g><defs><clipPath id="clip7"><path d="M55,129 L102,129 L102,174 L55,174 L55,129 z"/></clipPath></defs><g clip-path="url(#clip7)" fill="none" opacity="1" stroke="#000000" stroke-linecap="butt" stroke-linejoin="miter" stroke-miterlimit="2" stroke-opacity="1" stroke-width="1" transform="matrix(1,0,0,1,-52.5,-126.5)"><polyline fill="none" points="92,129 55,129" vector-effect="none"/></g><defs><clipPath id="clip8"><path d="M55,129 L102,129 L102,174 L55,174 L55,129 z"/></clipPath></defs><g clip-path="url(#clip8)" fill="none" opacity="1" stroke="#000000" stroke-linecap="butt" stroke-linejoin="miter" stroke-miterlimit="2" stroke-opacity="1" stroke-width="1" transform="matrix(1,0,0,1,-52.5,-126.5)"><polyline fill="none" points="55,129 55,173" vector-effect="none"/></g><defs><clipPath id="clip9"><path d="M55,129 L102,129 L102,174 L55,174 L55,129 z"/></clipPath></defs><g clip-path="url(#clip9)" fill="none" opacity="1" stroke="#000000" stroke-linecap="butt" stroke-linejoin="miter" stroke-miterlimit="2" stroke-opacity="1" stroke-width="1" transform="matrix(1,0,0,1,-52.5,-126.5)"><polyline fill="none" points="55,173 101,173" vector-effect="none"/></g><defs><clipPath id="clip10"><path d="M55,129 L102,129 L102,174 L55,174 L55,129 z"/></clipPath></defs><g clip-path="url(#clip10)" fill="none" opacity="1" stroke="#000000" stroke-linecap="butt" stroke-linejoin="miter" stroke-miterlimit="2" stroke-opacity="1" stroke-width="1" transform="matrix(1,0,0,1,-52.5,-126.5)"><polyline fill="none" points="101,173 101,138" vector-effect="none"/></g><defs><clipPath id="clip11"><path d="M55,129 L102,129 L102,174 L55,174 L55,129 z"/></clipPath></defs><g clip-path="url(#clip11)" fill="none" opacity="1" stroke="#000000" stroke-linecap="butt" stroke-linejoin="miter" stroke-miterlimit="2" stroke-opacity="1" stroke-width="1" transform="matrix(1,0,0,1,-52.5,-126.5)"><polyline fill="none" points="101,138 92,129" vector-effect="none"/></g><defs><clipPath id="clip12"><path d="M55,129 L102,129 L102,174 L55,174 L55,129 z"/></clipPath></defs><g clip-path="url(#clip12)" fill="none" opacity="1" stroke="#000000" stroke-linecap="butt" stroke-linejoin="miter" stroke-miterlimit="2" stroke-opacity="1" stroke-width="1" transform="matrix(1,0,0,1,-52.5,-126.5)"><polyline fill="none" points="92,129 92,138" vector-effect="none"/></g><defs><clipPath id="clip13"><path d="M55,129 L102,129 L102,174 L55,174 L55,129 z"/></clipPath></defs><g clip-path="url(#clip13)" fill="none" opacity="1" stroke="#000000" stroke-linecap="butt" stroke-linejoin="miter" stroke-miterlimit="2" stroke-opacity="1" stroke-width="1" transform="matrix(1,0,0,1,-52.5,-126.5)"><polyline fill="none" points="92,138 101,138" vector-effect="none"/></g><defs><clipPath id="clip14"><path d="M-23,-18 L24,-18 L24,27 L-23,27 L-23,-18 z"/></clipPath></defs><g clip-path="url(#clip14)" fill="none" opacity="1" stroke="#000000" stroke-linecap="butt" stroke-linejoin="miter" stroke-miterlimit="2" stroke-opacity="1" stroke-width="1" transform="matrix(1,0,0,1,25,20)"><text fill="#000000" fill-opacity="1" font-family="Arial" font-size="10" font-style="normal" font-weight="400" stroke="none" textLength="22.2031" x="-11.0938" xml:space="preserve" y="3.5">DOC</text></g><defs><clipPath id="clip15"><path d="M-44,-43 L3,-43 L3,2 L-44,2 L-44,-43 z"/></clipPath></defs><g clip-path="url(#clip15)" fill="none" opacity="1" stroke="#000000" stroke-linecap="butt" stroke-linejoin="miter" stroke-miterlimit="2" stroke-opacity="1" stroke-width="1" transform="matrix(1,0,0,1,46,45)"><text fill="#000000" fill-opacity="1" font-family="Arial" font-size="10" font-style="normal" font-weight="400" stroke="none" textLength="14.9688" x="-14.9688" xml:space="preserve" y="-2">Pdf</text></g><defs><clipPath id="clip20"><path d="M-2,-2 L49,-2 L49,47 L-2,47 L-2,-2 z"/></clipPath></defs><g clip-path="url(#clip20)" fill="none" opacity="1" stroke="none" stroke-opacity="0" transform="matrix(1,0,0,1,2,2)"><path d="M0,0 L47,0 L47,45 L0,45 L0,0 z" fill-rule="evenodd" vector-effect="none"/></g><g fill="none" opacity="1" stroke="#000000" stroke-linecap="square" stroke-linejoin="bevel" stroke-opacity="1" stroke-width="1" transform="matrix(1,0,0,1,25.5,49)"><text fill="#000000" fill-opacity="1" font-family="Arial" font-size="10" font-style="normal" font-weight="400" stroke="none" text-anchor="middle" x="0" y="11">Doc</text></g></g><!--generated on windows @ 2025-11-27 14:09:24 Romance Standard Time--></svg>
