<?xml version="1.0" encoding="UTF-8"?><svg width="189" height="80" viewBox="0 0 189 97" xmlns="http://www.w3.org/2000/svg" xmlns:xlink="http://www.w3.org/1999/xlink"><g fill="none" stroke="black" stroke-width="1" fill-rule="evenodd" stroke-linecap="square" stroke-linejoin="bevel"><g clip-path="none" fill="none" opacity="1" stroke="none" stroke-opacity="0" transform="matrix(1,0,0,1,0,0)"><path d="M0,0 L189,0 L189,80 L0,80 L0,0 z" fill-rule="evenodd" vector-effect="none"/></g><defs><clipPath id="clip3"><path d="M7,40 L-182,40 L-182,-40 L7,-40 L7,40 z"/></clipPath></defs><g clip-path="url(#clip3)" fill="none" opacity="1" stroke="#000000" stroke-linecap="round" stroke-linejoin="miter" stroke-miterlimit="2" stroke-opacity="1" stroke-width="2" transform="matrix(-1,0,0,-1,7,40)"><path d="M4.5,-5.5 L-0.5,-0.5 L4.5,4.5" fill-rule="evenodd" vector-effect="none"/></g><defs><clipPath id="clip6"><path d="M-7,-2 L182,-2 L182,78 L-7,78 L-7,-2 z"/></clipPath></defs><g clip-path="url(#clip6)" fill="#ffffff" fill-opacity="1" opacity="1" stroke="none" stroke-opacity="0" transform="matrix(1,0,0,1,7,2)"><path d="M0,0 L180,0 L180,76 L0,76 L0,0 z" fill-rule="evenodd" vector-effect="none"/></g><defs><clipPath id="clip10"><path d="M-92,-35 L92,-35 L92,45 L-92,45 L-92,-35 z"/></clipPath></defs><g clip-path="url(#clip10)" fill="none" opacity="1" stroke="#000000" stroke-linecap="butt" stroke-linejoin="miter" stroke-miterlimit="2" stroke-opacity="1" stroke-width="1" transform="matrix(1,0,0,1,97,35)"><text fill="#000000" fill-opacity="1" font-family="Arial, sans-serif" font-size="10" font-style="normal" font-weight="400" stroke="none" textLength="24.4219" x="-12.2031" xml:space="preserve" y="3.51563">PWM</text></g><defs><clipPath id="clip11"><path d="M-92,-45 L92,-45 L92,35 L-92,35 L-92,-45 z"/></clipPath></defs><g clip-path="url(#clip11)" fill="none" opacity="1" stroke="#000000" stroke-linecap="butt" stroke-linejoin="miter" stroke-miterlimit="2" stroke-opacity="1" stroke-width="1" transform="matrix(1,0,0,1,97,45)"><text fill="#000000" fill-opacity="1" font-family="Arial, sans-serif" font-size="10" font-style="normal" font-weight="400" stroke="none" textLength="28.8438" x="-14.4219" xml:space="preserve" y="3.51563">TCC 0</text></g><defs><clipPath id="clip12"><path d="M-5,-40 L179,-40 L179,40 L-5,40 L-5,-40 z"/></clipPath></defs><g clip-path="url(#clip12)" fill="none" opacity="1" stroke="#000000" stroke-linecap="butt" stroke-linejoin="miter" stroke-miterlimit="2" stroke-opacity="1" stroke-width="1" transform="matrix(1,0,0,1,10,40)"><text fill="#000000" fill-opacity="1" font-family="Arial, sans-serif" font-size="10" font-style="normal" font-weight="400" stroke="none" textLength="73.2188" x="0" xml:space="preserve" y="3.51563">DutyCycle[0 1 2]</text></g><defs><clipPath id="clip17"><path d="M-7.5,-2.5 L181.5,-2.5 L181.5,77.5 L-7.5,77.5 L-7.5,-2.5 z"/></clipPath></defs><g clip-path="url(#clip17)" fill="none" opacity="1" stroke="#000000" stroke-linecap="butt" stroke-linejoin="miter" stroke-miterlimit="2" stroke-opacity="1" stroke-width="1" transform="matrix(1,0,0,1,7.5,2.5)"><path d="M0,0 L180,0 L180,76 L0,76 L0,0 z" fill-rule="evenodd" vector-effect="none"/></g><g fill="none" opacity="1" stroke="#000000" stroke-linecap="square" stroke-linejoin="bevel" stroke-opacity="1" stroke-width="1" transform="matrix(1,0,0,1,94.5,80)"><text fill="#000000" fill-opacity="1" font-family="Arial" font-size="10" font-style="normal" font-weight="400" stroke="none" text-anchor="middle" x="0" y="11">TCC PWM</text></g></g><!--generated on windows @ 2026-04-20 11:32:30 Romance Daylight Time--></svg>
