<?xml version="1.0" encoding="UTF-8"?><svg width="129" height="54" viewBox="-14 0 156 71" xmlns="http://www.w3.org/2000/svg" xmlns:xlink="http://www.w3.org/1999/xlink"><g fill="none" stroke="black" stroke-width="1" fill-rule="evenodd" stroke-linecap="square" stroke-linejoin="bevel"><g clip-path="none" fill="none" opacity="1" stroke="none" stroke-opacity="0" transform="matrix(1,0,0,1,0,0)"><path d="M0,0 L129,0 L129,54 L0,54 L0,0 z" fill-rule="evenodd" vector-effect="none"/></g><defs><clipPath id="clip3"><path d="M-122,-27 L7,-27 L7,27 L-122,27 L-122,-27 z"/></clipPath></defs><g clip-path="url(#clip3)" fill="none" opacity="1" stroke="#000000" stroke-linecap="round" stroke-linejoin="miter" stroke-miterlimit="2" stroke-opacity="1" stroke-width="2" transform="matrix(1,0,0,1,122,27)"><path d="M0.5,-4.5 L5.5,0.5 L0.5,5.5" fill-rule="evenodd" vector-effect="none"/></g><defs><clipPath id="clip6"><path d="M7,27 L-122,27 L-122,-27 L7,-27 L7,27 z"/></clipPath></defs><g clip-path="url(#clip6)" fill="none" opacity="1" stroke="#000000" stroke-linecap="round" stroke-linejoin="miter" stroke-miterlimit="2" stroke-opacity="1" stroke-width="2" transform="matrix(-1,0,0,-1,7,27)"><path d="M4.5,-5.5 L-0.5,-0.5 L4.5,4.5" fill-rule="evenodd" vector-effect="none"/></g><defs><clipPath id="clip9"><path d="M-7,-2 L122,-2 L122,52 L-7,52 L-7,-2 z"/></clipPath></defs><g clip-path="url(#clip9)" fill="#ffffff" fill-opacity="1" opacity="1" stroke="none" stroke-opacity="0" transform="matrix(1,0,0,1,7,2)"><path d="M0,0 L115,0 L115,50 L0,50 L0,0 z" fill-rule="evenodd" vector-effect="none"/></g><defs><clipPath id="clip13"><path d="M-59,-17 L60,-17 L60,37 L-59,37 L-59,-17 z"/></clipPath></defs><g clip-path="url(#clip13)" fill="none" opacity="1" stroke="#000000" stroke-linecap="butt" stroke-linejoin="miter" stroke-miterlimit="2" stroke-opacity="1" stroke-width="1" transform="matrix(1,0,0,1,64,17)"><text fill="#000000" fill-opacity="1" font-family="Arial, sans-serif" font-size="10" font-style="normal" font-weight="400" stroke="none" textLength="38.8125" x="-19.4063" xml:space="preserve" y="3.51563">Interface</text></g><defs><clipPath id="clip14"><path d="M-59,-27 L60,-27 L60,27 L-59,27 L-59,-27 z"/></clipPath></defs><g clip-path="url(#clip14)" fill="none" opacity="1" stroke="#000000" stroke-linecap="butt" stroke-linejoin="miter" stroke-miterlimit="2" stroke-opacity="1" stroke-width="1" transform="matrix(1,0,0,1,64,27)"><text fill="#000000" fill-opacity="1" font-family="Arial, sans-serif" font-size="10" font-style="normal" font-weight="400" stroke="none" textLength="44.375" x="-22.1875" xml:space="preserve" y="3.51563">Tx-Matlab</text></g><defs><clipPath id="clip15"><path d="M-59,-37 L60,-37 L60,17 L-59,17 L-59,-37 z"/></clipPath></defs><g clip-path="url(#clip15)" fill="none" opacity="1" stroke="#000000" stroke-linecap="butt" stroke-linejoin="miter" stroke-miterlimit="2" stroke-opacity="1" stroke-width="1" transform="matrix(1,0,0,1,64,37)"><text fill="#000000" fill-opacity="1" font-family="Arial, sans-serif" font-size="10" font-style="normal" font-weight="400" stroke="none" textLength="37.7344" x="-18.8594" xml:space="preserve" y="3.51563">&gt;&gt;picgui</text></g><defs><clipPath id="clip20"><path d="M-7.5,-2.5 L121.5,-2.5 L121.5,51.5 L-7.5,51.5 L-7.5,-2.5 z"/></clipPath></defs><g clip-path="url(#clip20)" fill="none" opacity="1" stroke="#000000" stroke-linecap="butt" stroke-linejoin="miter" stroke-miterlimit="2" stroke-opacity="1" stroke-width="1" transform="matrix(1,0,0,1,7.5,2.5)"><path d="M0,0 L115,0 L115,50 L0,50 L0,0 z" fill-rule="evenodd" vector-effect="none"/></g><g fill="none" opacity="1" stroke="#000000" stroke-linecap="square" stroke-linejoin="bevel" stroke-opacity="1" stroke-width="1" transform="matrix(1,0,0,1,64.0,54)"><text fill="#000000" fill-opacity="1" font-family="Arial" font-size="10" font-style="normal" font-weight="400" stroke="none" text-anchor="middle" x="0" y="11">picgui Graphical interface</text></g></g><!--generated on windows @ 2026-04-20 11:32:29 Romance Daylight Time--></svg>
