<?xml version="1.0" encoding="UTF-8"?><svg width="36.5125mm" height="22.7541mm" viewBox="0 0 138 86" xmlns="http://www.w3.org/2000/svg" xmlns:xlink="http://www.w3.org/1999/xlink"><g fill="none" stroke="black" stroke-width="1" fill-rule="evenodd" stroke-linecap="square" stroke-linejoin="bevel"><g clip-path="none" fill="none" opacity="1" stroke="none" stroke-opacity="0" transform="matrix(1,0,0,1,0,0)"><path d="M0,0 L138,0 L138,69 L0,69 L0,0 z" fill-rule="evenodd" vector-effect="none"/></g><defs><clipPath id="clip3"><path d="M-2,-2 L136,-2 L136,67 L-2,67 L-2,-2 z"/></clipPath></defs><g clip-path="url(#clip3)" fill="#000000" fill-opacity="0.8" opacity="1" stroke="none" stroke-opacity="0" transform="matrix(1,0,0,1,2,2)"><path d="M134,4 L138,4 L138,69 L4,69 L4,65 L134,65 L134,4 z" fill-rule="evenodd" vector-effect="none"/></g><defs><clipPath id="clip4"><path d="M-2,-2 L136,-2 L136,67 L-2,67 L-2,-2 z"/></clipPath></defs><g clip-path="url(#clip4)" fill="#ffffff" fill-opacity="1" opacity="1" stroke="none" stroke-opacity="0" transform="matrix(1,0,0,1,2,2)"><path d="M0,0 L134,0 L134,65 L0,65 L0,0 z" fill-rule="evenodd" vector-effect="none"/></g><g clip-path="none" fill="none" opacity="1" stroke="#000000" stroke-linecap="butt" stroke-linejoin="miter" stroke-miterlimit="2" stroke-opacity="1" stroke-width="1" transform="matrix(1,0,0,1,-2.14748e+09,-2.14748e+09)"><text fill="#000000" fill-opacity="1" font-family="Arial" font-size="10" font-style="normal" font-weight="400" stroke="none" textLength="83.7031" x="0" xml:space="preserve" y="3.5">[Pin]  Port   -  Desc</text></g><defs><clipPath id="clip12"><path d="M-2.5,-2.5 L135.5,-2.5 L135.5,66.5 L-2.5,66.5 L-2.5,-2.5 z"/></clipPath></defs><g clip-path="url(#clip12)" fill="none" opacity="1" stroke="#000000" stroke-linecap="butt" stroke-linejoin="miter" stroke-miterlimit="2" stroke-opacity="1" stroke-width="1" transform="matrix(1,0,0,1,2.5,2.5)"><path d="M0,0 L134,0 L134,65 L0,65 L0,0 z" fill-rule="evenodd" vector-effect="none"/></g><g fill="none" opacity="1" stroke="#000000" stroke-linecap="square" stroke-linejoin="bevel" stroke-opacity="1" stroke-width="1" transform="matrix(1,0,0,1,69.0,69)"><text fill="#000000" fill-opacity="1" font-family="Arial" font-size="10" font-style="normal" font-weight="400" stroke="none" text-anchor="middle" x="0" y="11">PortInfo</text></g></g><!--generated on windows @ 2025-11-27 14:09:24 Romance Standard Time--></svg>
