<?xml version="1.0" encoding="UTF-8"?><svg width="94" height="38" viewBox="-7 0 108 55" xmlns="http://www.w3.org/2000/svg" xmlns:xlink="http://www.w3.org/1999/xlink"><g fill="none" stroke="black" stroke-width="1" fill-rule="evenodd" stroke-linecap="square" stroke-linejoin="bevel"><g clip-path="none" fill="none" opacity="1" stroke="none" stroke-opacity="0" transform="matrix(1,0,0,1,0,0)"><path d="M0,0 L94,0 L94,38 L0,38 L0,0 z" fill-rule="evenodd" vector-effect="none"/></g><defs><clipPath id="clip3"><path d="M-87,-19 L7,-19 L7,19 L-87,19 L-87,-19 z"/></clipPath></defs><g clip-path="url(#clip3)" fill="none" opacity="1" stroke="#000000" stroke-linecap="round" stroke-linejoin="miter" stroke-miterlimit="2" stroke-opacity="1" stroke-width="2" transform="matrix(1,0,0,1,87,19)"><path d="M0.5,-4.5 L5.5,0.5 L0.5,5.5" fill-rule="evenodd" vector-effect="none"/></g><defs><clipPath id="clip6"><path d="M-2,-2 L92,-2 L92,36 L-2,36 L-2,-2 z"/></clipPath></defs><g clip-path="url(#clip6)" fill="#ffffff" fill-opacity="1" opacity="1" stroke="none" stroke-opacity="0" transform="matrix(1,0,0,1,2,2)"><path d="M0,0 L85,0 L85,34 L0,34 L0,0 z" fill-rule="evenodd" vector-effect="none"/></g><defs><clipPath id="clip10"><path d="M-44,-9 L45,-9 L45,29 L-44,29 L-44,-9 z"/></clipPath></defs><g clip-path="url(#clip10)" fill="none" opacity="1" stroke="#000000" stroke-linecap="butt" stroke-linejoin="miter" stroke-miterlimit="2" stroke-opacity="1" stroke-width="1" transform="matrix(1,0,0,1,44,9)"><text fill="#000000" fill-opacity="1" font-family="Arial, sans-serif" font-size="10" font-style="normal" font-weight="400" stroke="none" textLength="27.7344" x="-13.8594" xml:space="preserve" y="3.51563">Digital</text></g><defs><clipPath id="clip11"><path d="M-44,-19 L45,-19 L45,19 L-44,19 L-44,-19 z"/></clipPath></defs><g clip-path="url(#clip11)" fill="none" opacity="1" stroke="#000000" stroke-linecap="butt" stroke-linejoin="miter" stroke-miterlimit="2" stroke-opacity="1" stroke-width="1" transform="matrix(1,0,0,1,44,19)"><text fill="#000000" fill-opacity="1" font-family="Arial, sans-serif" font-size="10" font-style="normal" font-weight="400" stroke="none" textLength="29.9375" x="-14.9688" xml:space="preserve" y="3.51563">Output</text></g><defs><clipPath id="clip12"><path d="M-44,-29 L45,-29 L45,9 L-44,9 L-44,-29 z"/></clipPath></defs><g clip-path="url(#clip12)" fill="none" opacity="1" stroke="#000000" stroke-linecap="butt" stroke-linejoin="miter" stroke-miterlimit="2" stroke-opacity="1" stroke-width="1" transform="matrix(1,0,0,1,44,29)"><text fill="#000000" fill-opacity="1" font-family="Arial, sans-serif" font-size="10" font-style="normal" font-weight="400" stroke="none" textLength="23.8594" x="-11.9219" xml:space="preserve" y="3.51563">Read</text></g><defs><clipPath id="clip13"><path d="M-84,-19 L5,-19 L5,19 L-84,19 L-84,-19 z"/></clipPath></defs><g clip-path="url(#clip13)" fill="none" opacity="1" stroke="#000000" stroke-linecap="butt" stroke-linejoin="miter" stroke-miterlimit="2" stroke-opacity="1" stroke-width="1" transform="matrix(1,0,0,1,84,19)"><text fill="#000000" fill-opacity="1" font-family="Arial, sans-serif" font-size="10" font-style="normal" font-weight="400" stroke="none" textLength="12.2031" x="-12.2031" xml:space="preserve" y="3.51563">A0</text></g><defs><clipPath id="clip18"><path d="M-2.5,-2.5 L91.5,-2.5 L91.5,35.5 L-2.5,35.5 L-2.5,-2.5 z"/></clipPath></defs><g clip-path="url(#clip18)" fill="none" opacity="1" stroke="#000000" stroke-linecap="butt" stroke-linejoin="miter" stroke-miterlimit="2" stroke-opacity="1" stroke-width="1" transform="matrix(1,0,0,1,2.5,2.5)"><path d="M0,0 L85,0 L85,34 L0,34 L0,0 z" fill-rule="evenodd" vector-effect="none"/></g><g fill="none" opacity="1" stroke="#000000" stroke-linecap="square" stroke-linejoin="bevel" stroke-opacity="1" stroke-width="1" transform="matrix(1,0,0,1,47.0,38)"><text fill="#000000" fill-opacity="1" font-family="Arial" font-size="10" font-style="normal" font-weight="400" stroke="none" text-anchor="middle" x="0" y="11">DigitalOutput Read</text></g></g><!--generated on windows @ 2026-04-20 11:32:29 Romance Daylight Time--></svg>
