<?xml version="1.0" encoding="UTF-8"?><svg width="159" height="78" viewBox="0 0 159 95" xmlns="http://www.w3.org/2000/svg" xmlns:xlink="http://www.w3.org/1999/xlink"><g fill="none" stroke="black" stroke-width="1" fill-rule="evenodd" stroke-linecap="square" stroke-linejoin="bevel"><g clip-path="none" fill="none" opacity="1" stroke="none" stroke-opacity="0" transform="matrix(1,0,0,1,0,0)"><path d="M0,0 L159,0 L159,78 L0,78 L0,0 z" fill-rule="evenodd" vector-effect="none"/></g><defs><clipPath id="clip3"><path d="M-2,-2 L157,-2 L157,76 L-2,76 L-2,-2 z"/></clipPath></defs><g clip-path="url(#clip3)" fill="#ffffff" fill-opacity="1" opacity="1" stroke="none" stroke-opacity="0" transform="matrix(1,0,0,1,2,2)"><path d="M0,0 L155,0 L155,74 L0,74 L0,0 z" fill-rule="evenodd" vector-effect="none"/></g><defs><clipPath id="clip7"><path d="M-79,-34 L80,-34 L80,44 L-79,44 L-79,-34 z"/></clipPath></defs><g clip-path="url(#clip7)" fill="none" opacity="1" stroke="#000000" stroke-linecap="butt" stroke-linejoin="miter" stroke-miterlimit="2" stroke-opacity="1" stroke-width="1" transform="matrix(1,0,0,1,79,34)"><text fill="#000000" fill-opacity="1" font-family="Arial, sans-serif" font-size="10" font-style="normal" font-weight="400" stroke="none" textLength="37.7344" x="-18.8594" xml:space="preserve" y="3.51563">MCAN 1</text></g><defs><clipPath id="clip8"><path d="M-79,-44 L80,-44 L80,34 L-79,34 L-79,-44 z"/></clipPath></defs><g clip-path="url(#clip8)" fill="none" opacity="1" stroke="#000000" stroke-linecap="butt" stroke-linejoin="miter" stroke-miterlimit="2" stroke-opacity="1" stroke-width="1" transform="matrix(1,0,0,1,79,44)"><text fill="#000000" fill-opacity="1" font-family="Arial, sans-serif" font-size="10" font-style="normal" font-weight="400" stroke="none" textLength="11.0938" x="-5.54688" xml:space="preserve" y="3.51563">Tx</text></g><defs><clipPath id="clip9"><path d="M-79,-39 L80,-39 L80,39 L-79,39 L-79,-39 z"/></clipPath></defs><g clip-path="url(#clip9)" fill="none" opacity="1" stroke="#000000" stroke-linecap="butt" stroke-linejoin="miter" stroke-miterlimit="2" stroke-opacity="1" stroke-width="1" transform="matrix(1,0,0,1,79,39)"><text fill="#000000" fill-opacity="1" font-family="Arial, sans-serif" font-size="10" font-style="normal" font-weight="400" stroke="none" textLength="22.1719" x="0" xml:space="preserve" y="0.921875">? ? ?</text></g><defs><clipPath id="clip14"><path d="M-2.5,-2.5 L156.5,-2.5 L156.5,75.5 L-2.5,75.5 L-2.5,-2.5 z"/></clipPath></defs><g clip-path="url(#clip14)" fill="none" opacity="1" stroke="#000000" stroke-linecap="butt" stroke-linejoin="miter" stroke-miterlimit="2" stroke-opacity="1" stroke-width="1" transform="matrix(1,0,0,1,2.5,2.5)"><path d="M0,0 L155,0 L155,74 L0,74 L0,0 z" fill-rule="evenodd" vector-effect="none"/></g><g fill="none" opacity="1" stroke="#000000" stroke-linecap="square" stroke-linejoin="bevel" stroke-opacity="1" stroke-width="1" transform="matrix(1,0,0,1,79.5,78)"><text fill="#000000" fill-opacity="1" font-family="Arial" font-size="10" font-style="normal" font-weight="400" stroke="none" text-anchor="middle" x="0" y="11">CAN Tx</text></g></g><!--generated on windows @ 2026-04-20 11:32:31 Romance Daylight Time--></svg>
