<?xml version="1.0" encoding="UTF-8"?><svg width="40.4812mm" height="20.1083mm" viewBox="0 0 153 76" xmlns="http://www.w3.org/2000/svg" xmlns:xlink="http://www.w3.org/1999/xlink"><g fill="none" stroke="black" stroke-width="1" fill-rule="evenodd" stroke-linecap="square" stroke-linejoin="bevel"><g clip-path="none" fill="none" opacity="1" stroke="none" stroke-opacity="0" transform="matrix(1,0,0,1,0,0)"><path d="M0,0 L153,0 L153,59 L0,59 L0,0 z" fill-rule="evenodd" vector-effect="none"/></g><defs><clipPath id="clip3"><path d="M-2,-2 L151,-2 L151,57 L-2,57 L-2,-2 z"/></clipPath></defs><g clip-path="url(#clip3)" fill="#ffffff" fill-opacity="1" opacity="1" stroke="none" stroke-opacity="0" transform="matrix(1,0,0,1,2,2)"><path d="M0,0 L149,0 L149,55 L0,55 L0,0 z" fill-rule="evenodd" vector-effect="none"/></g><defs><clipPath id="clip7"><path d="M-74,-27 L75,-27 L75,28 L-74,28 L-74,-27 z"/></clipPath></defs><g clip-path="url(#clip7)" fill="none" opacity="1" stroke="#000000" stroke-linecap="butt" stroke-linejoin="miter" stroke-miterlimit="2" stroke-opacity="1" stroke-width="1" transform="matrix(1,0,0,1,76,29)"><text fill="#000000" fill-opacity="1" font-family="Arial" font-size="10" font-style="normal" font-weight="400" stroke="none" textLength="21.0781" x="-10.5312" xml:space="preserve" y="3.5">PGA</text></g><defs><clipPath id="clip12"><path d="M-2.5,-2.5 L150.5,-2.5 L150.5,56.5 L-2.5,56.5 L-2.5,-2.5 z"/></clipPath></defs><g clip-path="url(#clip12)" fill="none" opacity="1" stroke="#000000" stroke-linecap="butt" stroke-linejoin="miter" stroke-miterlimit="2" stroke-opacity="1" stroke-width="1" transform="matrix(1,0,0,1,2.5,2.5)"><path d="M0,0 L149,0 L149,55 L0,55 L0,0 z" fill-rule="evenodd" vector-effect="none"/></g><g fill="none" opacity="1" stroke="#000000" stroke-linecap="square" stroke-linejoin="bevel" stroke-opacity="1" stroke-width="1" transform="matrix(1,0,0,1,76.5,59)"><text fill="#000000" fill-opacity="1" font-family="Arial" font-size="10" font-style="normal" font-weight="400" stroke="none" text-anchor="middle" x="0" y="11">PGA</text></g></g><!--generated on windows @ 2025-11-27 14:09:24 Romance Standard Time--></svg>
