<?xml version="1.0" encoding="UTF-8"?><svg width="35.9833mm" height="20.1083mm" viewBox="0 0 136 76" xmlns="http://www.w3.org/2000/svg" xmlns:xlink="http://www.w3.org/1999/xlink"><g fill="none" stroke="black" stroke-width="1" fill-rule="evenodd" stroke-linecap="square" stroke-linejoin="bevel"><g clip-path="none" fill="none" opacity="1" stroke="none" stroke-opacity="0" transform="matrix(1,0,0,1,0,0)"><path d="M0,0 L136,0 L136,59 L0,59 L0,0 z" fill-rule="evenodd" vector-effect="none"/></g><defs><clipPath id="clip3"><path d="M-2,-2 L134,-2 L134,57 L-2,57 L-2,-2 z"/></clipPath></defs><g clip-path="url(#clip3)" fill="#000000" fill-opacity="0.8" opacity="1" stroke="none" stroke-opacity="0" transform="matrix(1,0,0,1,2,2)"><path d="M132,4 L136,4 L136,59 L4,59 L4,55 L132,55 L132,4 z" fill-rule="evenodd" vector-effect="none"/></g><defs><clipPath id="clip4"><path d="M-2,-2 L134,-2 L134,57 L-2,57 L-2,-2 z"/></clipPath></defs><g clip-path="url(#clip4)" fill="#ffffff" fill-opacity="1" opacity="1" stroke="none" stroke-opacity="0" transform="matrix(1,0,0,1,2,2)"><path d="M0,0 L132,0 L132,55 L0,55 L0,0 z" fill-rule="evenodd" vector-effect="none"/></g><defs><clipPath id="clip8"><path d="M-66,-22 L66,-22 L66,33 L-66,33 L-66,-22 z"/></clipPath></defs><g clip-path="url(#clip8)" fill="none" opacity="1" stroke="#000000" stroke-linecap="butt" stroke-linejoin="miter" stroke-miterlimit="2" stroke-opacity="1" stroke-width="1" transform="matrix(1,0,0,1,68,24)"><text fill="#000000" fill-opacity="1" font-family="Arial" font-size="10" font-style="normal" font-weight="400" stroke="none" textLength="59.9062" x="-29.9531" xml:space="preserve" y="3.5">3 timers used</text></g><defs><clipPath id="clip13"><path d="M-2.5,-2.5 L133.5,-2.5 L133.5,56.5 L-2.5,56.5 L-2.5,-2.5 z"/></clipPath></defs><g clip-path="url(#clip13)" fill="none" opacity="1" stroke="#000000" stroke-linecap="butt" stroke-linejoin="miter" stroke-miterlimit="2" stroke-opacity="1" stroke-width="1" transform="matrix(1,0,0,1,2.5,2.5)"><path d="M0,0 L132,0 L132,55 L0,55 L0,0 z" fill-rule="evenodd" vector-effect="none"/></g><g fill="none" opacity="1" stroke="#000000" stroke-linecap="square" stroke-linejoin="bevel" stroke-opacity="1" stroke-width="1" transform="matrix(1,0,0,1,68.0,59)"><text fill="#000000" fill-opacity="1" font-family="Arial" font-size="10" font-style="normal" font-weight="400" stroke="none" text-anchor="middle" x="0" y="11">TimerInfo</text></g></g><!--generated on windows @ 2025-11-27 14:09:24 Romance Standard Time--></svg>
